# xmcd CD database file
# Copyright (C) 1993-1998 Ti Kan
#
# Track frame offsets:
#	150
#	20065
#	31235
#	48445
#
# Disc length: 833 seconds
#
# Revision: 1
# Processed by: cddbd v1.4b41PL1 Copyright (c) Steve Scherf et al.
# Submitted via: CDValet v3.01 - Copyright (c) 1997 Greg Leichner
#
DISCID=2b033f04
DTITLE=Ben Harper - sampler [CD5)
DYEAR=1900
DGENRE=
TTITLE0=Don't Take That Attitude to Your Grave
TTITLE1=Mama's Got A Girlfriend
TTITLE2=Walk Away
TTITLE3=How Many Miles Must We March?
EXTD=
EXTT0=
EXTT1=
EXTT2=
EXTT3=
PLAYORDER=
